<svg width="32" height="32" viewBox="0 0 48 48" fill="none" xmlns="http://www.w3.org/2000/svg">
<path d="M11 6.42002V41.6C11 42.5 12.08 42.94 12.7 42.3L22.42 32.58C22.6046 32.3916 22.8562 32.2838 23.12 32.28H36.86C37.0557 32.2773 37.2463 32.2171 37.4082 32.1071C37.5701 31.997 37.6961 31.8419 37.7706 31.6609C37.8452 31.4799 37.8649 31.281 37.8275 31.0888C37.79 30.8967 37.697 30.7198 37.56 30.58L12.7 5.70002C12.5602 5.56298 12.3833 5.46997 12.1912 5.43253C11.999 5.39509 11.8002 5.41485 11.6192 5.48938C11.4381 5.56391 11.283 5.68993 11.1729 5.8518C11.0629 6.01368 11.0027 6.20429 11 6.40002V6.42002Z" fill="black" stroke="white" stroke-width="3"/>
</svg>
